<?xml version="1.0" encoding="iso-8859-1"?>
<!-- Generator: Adobe Illustrator 18.0.0, SVG Export Plug-In . SVG Version: 6.00 Build 0)  -->
<!DOCTYPE svg PUBLIC "-//W3C//DTD SVG 1.1//EN" "http://www.w3.org/Graphics/SVG/1.1/DTD/svg11.dtd">
<svg version="1.1" id="Capa_1" xmlns="http://www.w3.org/2000/svg" xmlns:xlink="http://www.w3.org/1999/xlink" x="0px" y="0px"
	 viewBox="0 0 44 44" style="enable-background:new 0 0 44 44;" xml:space="preserve">
<g>
	<path d="M27.388,28.008c0.038,0.335,0.059,0.68,0.078,1.005c0.068,1.173,0.067,2.534,0.067,3.435v0.164c0,0.553-0.447,1-1,1
		s-1-0.447-1-1v-0.165c0.001-2.23-0.054-3.717-0.163-4.441L23,28.002v6.799c0,1.654,1.346,3,3,3h1c1.654,0,3-1.346,3-3v-6.794
		c-0.49,0.002-1.068,0.002-1.689,0.002L27.388,28.008z"/>
	<path d="M22,0C9.869,0,0,9.869,0,22s9.869,22,22,22s22-9.869,22-22S34.131,0,22,0z M8.293,18.778l3.536-3.536l-3.536-3.536
		c-0.391-0.391-0.391-1.023,0-1.414s1.023-0.391,1.414,0l3.536,3.536l3.536-3.536c0.391-0.391,1.023-0.391,1.414,0
		s0.391,1.023,0,1.414l-3.536,3.536l3.536,3.536c0.391,0.391,0.391,1.023,0,1.414c-0.195,0.195-0.451,0.293-0.707,0.293
		s-0.512-0.098-0.707-0.293l-3.536-3.536l-3.536,3.536C9.512,20.388,9.256,20.485,9,20.485s-0.512-0.098-0.707-0.293
		C7.902,19.802,7.902,19.169,8.293,18.778z M32,28v6.801c0,2.757-2.243,5-5,5h-1c-2.757,0-5-2.243-5-5V28H10c-0.553,0-1-0.447-1-1
		s0.447-1,1-1h22c0.553,0,1,0.447,1,1S32.553,28,32,28z M35.707,18.778c0.391,0.391,0.391,1.023,0,1.414
		c-0.195,0.195-0.451,0.293-0.707,0.293s-0.512-0.098-0.707-0.293l-3.536-3.536l-3.536,3.536c-0.195,0.195-0.451,0.293-0.707,0.293
		s-0.512-0.098-0.707-0.293c-0.391-0.391-0.391-1.023,0-1.414l3.536-3.536l-3.536-3.536c-0.391-0.391-0.391-1.023,0-1.414
		s1.023-0.391,1.414,0l3.536,3.536l3.536-3.536c0.391-0.391,1.023-0.391,1.414,0s0.391,1.023,0,1.414l-3.536,3.536L35.707,18.778z"
		/>
</g>
<g>
</g>
<g>
</g>
<g>
</g>
<g>
</g>
<g>
</g>
<g>
</g>
<g>
</g>
<g>
</g>
<g>
</g>
<g>
</g>
<g>
</g>
<g>
</g>
<g>
</g>
<g>
</g>
<g>
</g>
</svg>
